<?xml version="1.0" encoding="UTF-8" standalone="no"?>
<!-- Created with Inkscape (http://www.inkscape.org/) -->

<svg
   xmlns:dc="http://purl.org/dc/elements/1.1/"
   xmlns:cc="http://creativecommons.org/ns#"
   xmlns:rdf="http://www.w3.org/1999/02/22-rdf-syntax-ns#"
   xmlns:svg="http://www.w3.org/2000/svg"
   xmlns="http://www.w3.org/2000/svg"
   xmlns:sodipodi="http://sodipodi.sourceforge.net/DTD/sodipodi-0.dtd"
   xmlns:inkscape="http://www.inkscape.org/namespaces/inkscape"
   width="96"
   height="96"
   id="svg2990"
   version="1.1"
   inkscape:version="0.48.4 r9939"
   sodipodi:docname="Logo_White.svg">
  <defs
     id="defs2992" />
  <sodipodi:namedview
     id="base"
     pagecolor="#ffffff"
     bordercolor="#666666"
     borderopacity="1.0"
     inkscape:pageopacity="0.0"
     inkscape:pageshadow="2"
     inkscape:zoom="7.7781746"
     inkscape:cx="-11.270793"
     inkscape:cy="40.98438"
     inkscape:current-layer="layer1"
     showgrid="true"
     inkscape:document-units="px"
     inkscape:grid-bbox="true"
     inkscape:window-width="2782"
     inkscape:window-height="1764"
     inkscape:window-x="98"
     inkscape:window-y="36"
     inkscape:window-maximized="1" />
  <metadata
     id="metadata2995">
    <rdf:RDF>
      <cc:Work
         rdf:about="">
        <dc:format>image/svg+xml</dc:format>
        <dc:type
           rdf:resource="http://purl.org/dc/dcmitype/StillImage" />
        <dc:title></dc:title>
      </cc:Work>
    </rdf:RDF>
  </metadata>
  <g
     id="layer1"
     inkscape:label="Layer 1"
     inkscape:groupmode="layer"
     transform="translate(0,32)">
    <path
       style="fill:#ffffff;fill-opacity:1;stroke:#000000;stroke-width:0.31189023999999999px;stroke-linecap:butt;stroke-linejoin:miter;stroke-opacity:0;display:inline"
       d="M 93.941531,19.276109 C 79.027871,4.0156227 61.098739,-0.0542346 47.786566,-0.1463262 20.281074,-0.345136 2.0584636,18.875921 2.0584636,18.875921 c 0,0 11.2999714,-8.029365 33.8291884,-11.7655172 C 33.071656,11.271293 32.795007,15.806496 32.846226,17.942151 34.231414,32.083433 46.335361,32.05528 47.736442,32.147858 56.598455,32.134008 60.029339,25.061082 60.058983,21.997386 60.767769,13.613752 55.143661,9.5981572 50.13433,9.5115334 43.991525,9.4053153 41.441555,13.150927 40.84998,18.048868 c 1.70383,-0.03822 1.920897,0 1.920897,0 l 1.494036,-2.881352 1.569054,3.092119 1.710089,-6.341527 c 0,0 1.765551,8.241202 1.871342,8.421039 0.16629,-0.623781 0.311889,-2.348389 0.311889,-2.348389 l 2.979046,0.02876 -0.02529,0.925336 -1.942157,-0.0062 c 0,0 -1.117829,4.606505 -1.323481,5.143053 -0.277081,-0.536548 -1.87134,-7.797254 -1.87134,-7.797254 0,0 -0.935669,2.807011 -1.559451,4.678353 -1.247559,-2.495121 -1.713197,-3.573373 -1.713197,-3.573373 l -0.781931,1.557988 -2.671321,-0.01108 c 0,0 0.382638,7.124178 7.732369,6.869156 5.525638,-0.191723 5.877256,-2.980031 6.376375,-3.546625 -0.858753,3.88318 -3.273877,5.884682 -7.961036,6.036808 C 40.101727,28.226 37.376672,23.442948 37.344709,18.297219 37.384219,9.0800977 44.169079,6.3557367 50.022006,6.4499822 72.782014,5.7853435 93.941536,19.275967 93.941536,19.275967 z"
       id="path2982"
       inkscape:connector-curvature="0"
       sodipodi:nodetypes="cccccccsccccccccccccccccscccccc" />
  </g>
</svg>
